PathFileType	4	(X/Y/Z)	../Python\walking\Walking09\task.trc
DataRate	CameraRate	NumFrames	NumMarkers	Units	OrigDataRate	OrigDataStartFrame	OrigNumFrames
200.000000	200.000000	6	30	mm	200.000000	83	668
Frame#	Time	CLAV			STRN			RASI			LASI			RTH1			RTH2			RTH3			RTB1			RTB2			RTB3			RHEE			RD5M			RTOE			LTH1			LTH3			LTB1			LTB3			LTOE			LD5M			LPSI			LTB2			LTH2			RPSI			PE02			T10			PE03			PE01			C7			LHEE			RBAK			
		X1	Y1	Z1	X2	Y2	Z2	X3	Y3	Z3	X4	Y4	Z4	X5	Y5	Z5	X6	Y6	Z6	X7	Y7	Z7	X8	Y8	Z8	X9	Y9	Z9	X10	Y10	Z10	X11	Y11	Z11	X12	Y12	Z12	X13	Y13	Z13	X14	Y14	Z14	X15	Y15	Z15	X16	Y16	Z16	X17	Y17	Z17	X18	Y18	Z18	X19	Y19	Z19	X20	Y20	Z20	X21	Y21	Z21	X22	Y22	Z22	X23	Y23	Z23	X24	Y24	Z24	X25	Y25	Z25	X26	Y26	Z26	X27	Y27	Z27	X28	Y28	Z28	X29	Y29	Z29	X30	Y30	Z30	

84	0.415	-835.1751098632817	1402.260009765625	123.288429260254	-787.0526733398442	1207.037841796875	136.9947052001954	-810.7059936523442	1005.752319335938	280.684295654297	-821.636596679688	993.372192382813	1.465003490447998	-791.262084960938	750.2728271484377	330.6606445312501	-832.855102539063	709.555358886719	310.271209716797	-795.3688964843755	676.4544067382815	303.6930541992189	-657.0731201171877	367.3455200195314	256.2869262695314	-681.9129028320315	311.5284118652345	251.9600219726564	-634.9981079101565	292.0449523925782	244.376434326172	-615.5046386718752	14.97540569305421	147.5484008789063	-465.195739746094	36.97669601440431	231.6232299804689	-425.0096435546877	79.92311859130862	204.3089904785157	-989.6435546875005	713.128601074219	-11.70810890197754	-989.9545898437505	635.5949707031252	4.294218063354494	-1136.06201171875	378.1270141601564	43.94717025756837	-1145.259155273438	300.6698303222657	55.59262847900393	-1105.502319335938	27.73056030273439	130.5232391357422	-1157.361572265625	16.05882644653321	87.25936126708987	-988.0403442382817	1044.007690429688	111.6050109863282	-1176.568237304688	354.344451904297	60.73393630981448	-1026.690185546875	685.6976318359377	9.103892326354984	-976.5493164062505	1043.687744140625	210.7341308593751	-983.8198852539067	1031.35986328125	188.5269927978516	-1015.014465332032	1242.130249023438	124.1176071166993	-990.591430664063	1030.349853515625	138.0101013183594	-974.3395385742192	1090.91259765625	160.149154663086	-945.6738891601567	1497.552001953125	106.2996063232422	-1303.9853515625	94.83731842041018	150.3132629394532	-974.1582641601567	1419.463256835938	279.3450927734376	
85	0.42	-828.494506835938	1402.300048828125	123.649513244629	-779.7790527343755	1207.248657226563	137.1634368896485	-803.1694946289067	1006.191711425782	280.8412170410157	-813.689086914063	992.6618652343755	1.63004755973816	-783.671264648438	750.8409423828127	330.6926269531251	-825.3677368164067	710.1661376953127	310.5274658203126	-787.8997192382817	677.0101318359377	303.7006225585939	-651.988220214844	366.6680908203126	255.6879730224611	-677.3565673828127	311.0397949218751	251.3142242431642	-630.6588134765627	291.1727294921876	243.7342681884767	-614.8823852539065	15.0310754776001	147.1309356689454	-463.9303283691409	33.43432998657228	231.0060272216798	-422.4644775390627	75.06705474853518	203.6031188964845	-982.4638671875005	712.816101074219	-11.65760231018067	-983.0164184570317	635.2293090820315	4.28842353820801	-1130.885986328125	379.0366210937501	43.42765045166017	-1140.976318359375	301.6831054687501	55.04085922241214	-1105.357055664063	27.75780105590822	130.4417877197266	-1157.13134765625	16.09406661987305	87.21740722656253	-980.267456054688	1043.718994140625	111.2573013305665	-1171.708740234375	355.6680603027345	60.06672668457034	-1019.552978515625	685.4832153320315	9.225517272949222	-969.115112304688	1043.763916015625	210.4292907714845	-976.3046264648442	1031.348999023438	188.2219390869141	-1007.920043945313	1241.687866210938	124.0837020874024	-982.8840332031255	1030.181274414063	137.6977844238282	-966.8095703125005	1090.83447265625	159.6845397949219	-939.2397460937505	1497.384399414063	106.6612625122071	-1302.445190429688	98.12728881835943	149.0581817626954	-967.6137084960942	1418.968139648438	279.6467285156251	
86	0.425	-821.8022460937505	1402.411865234375	124.0219345092774	-772.4727172851567	1207.547729492188	137.3358001708985	-795.6016235351567	1006.755615234375	280.9745483398439	-805.6820678710942	991.9921875000005	1.820180535316468	-776.0482788085942	751.481384277344	330.6939697265626	-817.940551757813	710.8880615234377	310.8410644531251	-780.5922851562505	677.614440917969	303.6970214843751	-646.975036621094	366.0958557128907	255.1152648925782	-672.8416137695315	310.6533508300782	250.7784271240236	-626.3691406250002	290.4272460937501	243.1403350830079	-614.2817382812502	15.30675983428956	146.8417663574219	-462.5760803222659	30.12580490112306	230.4113922119142	-419.8378601074221	70.28430938720706	202.7329254150392	-975.0957641601567	712.4893798828127	-11.62051773071289	-975.875366210938	634.855651855469	4.290792465209963	-1125.49072265625	379.9720764160157	42.879207611084	-1136.491943359375	302.7312927246095	54.44248199462893	-1105.204223632813	27.78905677795412	130.3533935546876	-1156.894897460938	16.11907386779786	87.17314147949222	-972.4185180664067	1043.492431640625	110.9252624511719	-1166.63330078125	357.0312805175782	59.36846923828128	-1012.2236328125	685.2502441406252	9.335348129272464	-961.644409179688	1043.929565429688	210.0985412597657	-968.741333007813	1031.426635742188	187.9090881347657	-1000.789489746094	1241.300048828125	124.0310821533204	-975.118774414063	1030.082641601563	137.3702239990235	-959.2457885742192	1090.830810546875	159.1800231933594	-932.7960815429692	1497.275024414063	107.030372619629	-1300.713989257813	101.5615768432618	147.7548980712891	-961.0610961914067	1418.5234375	279.9478454589845	
87	0.43	-815.099975585938	1402.593505859375	124.4038162231446	-765.138854980469	1207.932006835938	137.5098114013672	-788.009887695313	1007.442687988282	281.0836486816407	-797.6249389648442	991.3645629882817	2.037127256393434	-768.408813476563	752.1948852539065	330.661346435547	-810.5871582031255	711.7216796875002	311.2063293457032	-773.4590454101567	678.2727661132815	303.6808471679689	-642.0278320312502	365.6368408203126	254.5702362060548	-668.3575439453127	310.3772277832032	250.3601226806642	-622.1192626953127	289.8188781738282	242.5949707031251	-613.677185058594	15.7746982574463	146.6728668212891	-461.1381530761721	27.11497497558595	229.854705810547	-417.170104980469	65.6545333862305	201.6800994873048	-967.5437011718755	712.1519775390627	-11.59392929077149	-968.5346679687505	634.478698730469	4.299916267395021	-1119.865844726563	380.9295654296876	42.30314254760744	-1131.79443359375	303.8107910156251	53.79558181762698	-1105.047973632813	27.82101058959962	130.2589569091797	-1156.652954101563	16.1349220275879	87.12625885009768	-964.5041503906255	1043.328979492188	110.6090316772462	-1161.331176757813	358.430633544922	58.64211654663089	-1004.70458984375	685.0029907226565	9.43952560424805	-954.1440429687505	1044.18310546875	209.7430267333986	-961.1386108398442	1031.592529296875	187.5890350341797	-993.627075195313	1240.967407226563	123.9596099853516	-967.3043823242192	1030.052734375	137.0283660888672	-951.655639648438	1090.900146484375	158.6369171142579	-926.343627929688	1497.223266601563	107.4055709838868	-1298.767944335938	105.1390228271485	146.408676147461	-954.5011596679692	1418.129638671875	280.2471008300782	
88	0.435	-808.3892211914067	1402.842895507813	124.7931900024415	-757.7827148437502	1208.397827148438	137.683578491211	-780.4025878906255	1008.250610351563	281.168426513672	-789.5276489257817	990.7799682617192	2.282590150833131	-760.7678833007815	752.9833984375002	330.5926208496095	-803.316772460938	712.6660156250002	311.618133544922	-766.502868652344	678.9917602539065	303.6539001464845	-637.142028808594	365.295379638672	254.053436279297	-663.8975830078127	310.2163696289064	250.0638275146486	-617.903503417969	289.3528137207032	242.0968170166017	-613.056579589844	16.39755058288575	146.6121978759766	-459.643981933594	24.44759941101076	229.3514404296876	-414.5203247070315	61.24853897094729	200.4413604736329	-959.812622070313	711.806335449219	-11.57423973083496	-960.9970092773442	634.1016235351565	4.313458919525148	-1114.000122070313	381.9036865234376	41.70043945312501	-1126.871337890625	304.9165344238282	53.09839248657229	-1104.892944335938	27.84930229187013	130.1600646972657	-1156.404907226563	16.14449310302735	87.07587432861331	-956.536743164063	1043.22900390625	110.305404663086	-1155.790283203125	359.8609924316407	57.89042282104495	-996.998168945313	684.743835449219	9.544467926025394	-946.6210327148442	1044.522094726563	209.3636474609376	-953.5053710937505	1031.84521484375	187.2610931396485	-986.4372558593755	1240.690551757813	123.8693389892579	-959.4505004882817	1030.089599609375	136.6725006103516	-944.0469360351567	1091.039916992188	158.0565948486329	-919.883178710938	1497.228149414063	107.7854919433594	-1296.582275390625	108.8572082519532	145.0237884521485	-947.9346313476567	1417.787109375	280.5432128906251	
89	0.44	-801.6716918945317	1403.157104492188	125.1880035400391	-750.409851074219	1208.94091796875	137.8552856445313	-772.7879028320317	1009.175720214844	281.2293090820314	-781.401000976563	990.2391967773442	2.558126449584962	-753.1394653320315	753.8489990234377	330.4871215820314	-796.133911132813	713.7183227539065	312.0720214843751	-759.7171020507815	679.7786865234377	303.6209716796876	-632.3150024414065	365.0718994140626	253.5646514892579	-659.4592895507815	310.172088623047	249.8905029296876	-613.7211914062502	289.0286560058595	241.6429138183595	-612.4192504882815	17.13241386413575	146.6441192626954	-458.1365661621096	22.1496753692627	228.9157104492189	-411.9559020996096	57.12353515625003	199.0336914062501	-951.9072265625005	711.453308105469	-11.55739402770996	-953.2646484375005	633.7253417968752	4.328119277954103	-1107.880859375	382.8873596191407	41.0717124938965	-1121.709228515625	306.0419006347657	52.34943771362308	-1104.743896484375	27.86874198913576	130.0590362548829	-1156.148071289063	16.15295028686524	87.02048492431643	-948.5302734375005	1043.192504882813	110.0080947875977	-1149.99755859375	361.3154296875001	57.11586380004886	-989.1063842773442	684.4726562500002	9.65642070770264	-939.0830078125005	1044.943481445313	208.9612121582032	-945.8511352539067	1032.182250976563	186.9233703613282	-979.2247924804692	1240.469360351563	123.7605819702149	-951.5678100585942	1030.190795898438	136.3022460937501	-936.4274291992192	1091.247314453125	157.4404907226563	-913.4155273437505	1497.288696289063	108.1687622070313	-1294.131469726563	112.7124404907227	143.6031188964844	-941.362182617188	1417.495483398438	280.8350219726564	
